<mxfile host="app.diagrams.net" modified="2023-10-21T13:26:06.775Z" agent="Mozilla/5.0 (Macintosh; Intel Mac OS X 10_15_7) AppleWebKit/537.36 (KHTML, like Gecko) Chrome/118.0.0.0 Safari/537.36" version="21.6.2" etag="A6_xSLnHSE2LpB9aVzNN" type="github">
  <diagram name="Page-1" id="r9Ckkb9b4V1DtNRH0wae">
    <mxGraphModel>
      <root>
        <mxCell id="0" />
        <mxCell id="1" parent="0" />
      </root>
    </mxGraphModel>
  </diagram>
</mxfile>
